<svg xmlns="http://www.w3.org/2000/svg" width="680" height="446" viewBox="0 0 680 446" role="img">
<title>Snow lighting model: warm directional sun, cool blue skylight filling shadows, and ambient occlusion darkening concavities</title>
<desc>A snow mound cross-section shows a warm sunlit slope, a cool blue shaded slope, and a darker occluded pocket at its base, lit by a warm key light and diffuse cool skylight. Below, three swatches compare flat-white whiteout, grey muddy shading, and the target warm-plus-cool look.</desc>
<style>
.t{font-family:system-ui,'Segoe UI',Roboto,Helvetica,Arial,sans-serif;font-size:14px;font-weight:400;fill:#2C2C2A}
.ts{font-family:system-ui,'Segoe UI',Roboto,Helvetica,Arial,sans-serif;font-size:12px;font-weight:400;fill:#5F5E5A}
.th{font-family:system-ui,'Segoe UI',Roboto,Helvetica,Arial,sans-serif;font-size:14px;font-weight:500;fill:#2C2C2A}
.leader{stroke:#A0A39B;stroke-width:.6;stroke-dasharray:3 3;fill:none}
</style>
<defs>
<marker id="arrow" viewBox="0 0 10 10" refX="8" refY="5" markerWidth="6" markerHeight="6" orient="auto-start-reverse"><path d="M2 1L8 5L2 9" fill="none" stroke="context-stroke" stroke-width="1.5" stroke-linecap="round" stroke-linejoin="round"/></marker>
<clipPath id="snow">
<path d="M80 240 C140 240 165 118 250 110 C335 118 360 240 420 240 Z"/>
<path d="M90 400 C120 400 130 338 150 335 C170 338 180 400 210 400 Z"/>
<path d="M280 400 C310 400 320 338 340 335 C360 338 370 400 400 400 Z"/>
<path d="M465 400 C495 400 505 338 525 335 C545 338 555 400 585 400 Z"/>
</clipPath>
</defs>

<rect x="1" y="1" width="678" height="444" rx="14" fill="#FAF9F6" stroke="#E6E4DC" stroke-width="1"/>

<rect x="40" y="240" width="430" height="16" fill="#E7ECF3"/>
<line x1="40" y1="240" x2="470" y2="240" stroke="#BCC4CF" stroke-width="0.8"/>
<ellipse cx="398" cy="248" rx="58" ry="7" fill="#A8BCDB" opacity="0.5"/>

<rect x="80" y="104" width="100" height="138" fill="#FFF6E6" clip-path="url(#snow)"/>
<rect x="180" y="104" width="140" height="138" fill="#EAEEF5" clip-path="url(#snow)"/>
<rect x="320" y="104" width="100" height="138" fill="#B6C9E6" clip-path="url(#snow)"/>
<ellipse cx="360" cy="236" rx="34" ry="11" fill="#93A9CC" clip-path="url(#snow)"/>
<path d="M80 240 C140 240 165 118 250 110 C335 118 360 240 420 240 Z" fill="none" stroke="#BCC4CF" stroke-width="1"/>

<circle cx="100" cy="68" r="24" fill="#FBC453" opacity="0.3"/>
<circle cx="100" cy="68" r="16" fill="#FBC453"/>
<line x1="118" y1="80" x2="168" y2="138" stroke="#F2A33A" stroke-width="1.3" marker-end="url(#arrow)"/>
<line x1="130" y1="66" x2="198" y2="126" stroke="#F2A33A" stroke-width="1.3" marker-end="url(#arrow)"/>
<line x1="108" y1="92" x2="150" y2="162" stroke="#F2A33A" stroke-width="1.3" marker-end="url(#arrow)"/>

<line x1="270" y1="46" x2="270" y2="62" stroke="#8FA9D6" stroke-width="1" opacity="0.8" marker-end="url(#arrow)"/>
<line x1="320" y1="44" x2="320" y2="60" stroke="#8FA9D6" stroke-width="1" opacity="0.8" marker-end="url(#arrow)"/>
<line x1="370" y1="46" x2="370" y2="62" stroke="#8FA9D6" stroke-width="1" opacity="0.8" marker-end="url(#arrow)"/>

<line class="leader" x1="478" y1="122" x2="162" y2="208"/>
<circle cx="160" cy="210" r="2" fill="#8A8A85"/>
<line class="leader" x1="478" y1="174" x2="357" y2="203"/>
<circle cx="355" cy="205" r="2" fill="#8A8A85"/>
<line class="leader" x1="478" y1="226" x2="360" y2="232"/>
<circle cx="360" cy="234" r="2" fill="#8A8A85"/>

<text class="th" x="52" y="40">Warm key light</text>
<text class="th" x="325" y="40" text-anchor="middle">Skylight fill (cool)</text>

<text class="th" x="482" y="118">Sunlit slope</text>
<text class="ts" x="482" y="134">#FFF6E6 warm white</text>
<text class="th" x="482" y="170">Shaded slope</text>
<text class="ts" x="482" y="186">#B6C9E6 cool blue</text>
<text class="th" x="482" y="222">Occluded pocket</text>
<text class="ts" x="482" y="238">#93A9CC (AO)</text>

<text class="th" x="60" y="302">Three lighting regimes</text>

<rect x="90" y="330" width="120" height="72" fill="#F8FAFD" clip-path="url(#snow)"/>
<path d="M90 400 C120 400 130 338 150 335 C170 338 180 400 210 400 Z" fill="none" stroke="#BCC4CF" stroke-width="0.8"/>
<line x1="90" y1="400" x2="210" y2="400" stroke="#D2D5DB" stroke-width="0.5"/>

<rect x="280" y="330" width="60" height="72" fill="#D6D9DF" clip-path="url(#snow)"/>
<rect x="340" y="330" width="60" height="72" fill="#B3B6BD" clip-path="url(#snow)"/>
<path d="M280 400 C310 400 320 338 340 335 C360 338 370 400 400 400 Z" fill="none" stroke="#BCC4CF" stroke-width="0.8"/>
<line x1="280" y1="400" x2="400" y2="400" stroke="#D2D5DB" stroke-width="0.5"/>

<rect x="465" y="330" width="42" height="72" fill="#FFF6E6" clip-path="url(#snow)"/>
<rect x="507" y="330" width="36" height="72" fill="#EAEEF5" clip-path="url(#snow)"/>
<rect x="543" y="330" width="42" height="72" fill="#B6C9E6" clip-path="url(#snow)"/>
<ellipse cx="556" cy="394" rx="13" ry="6" fill="#93A9CC" clip-path="url(#snow)"/>
<path d="M465 400 C495 400 505 338 525 335 C545 338 555 400 585 400 Z" fill="none" stroke="#BCC4CF" stroke-width="0.8"/>
<line x1="465" y1="400" x2="585" y2="400" stroke="#D2D5DB" stroke-width="0.5"/>

<text class="ts" x="150" y="420" text-anchor="middle">Flat white = whiteout</text>
<text class="ts" x="340" y="420" text-anchor="middle">Grey shading = muddy</text>
<text class="ts" x="525" y="420" text-anchor="middle">Warm + cool = form</text>
</svg>
